<svg width="19" height="35" viewBox="0 0 19 35" fill="none" xmlns="http://www.w3.org/2000/svg">
<g clip-path="url(#clip0_245_121)">
<path d="M6.64458 0.00390625C6.94243 0.215038 6.99898 0.509115 6.99898 0.859746C6.98767 3.5366 7.00652 6.21723 6.97636 8.89408C6.96128 10.3758 5.87922 11.6954 4.44277 12.0611C4.17508 12.1289 4.09214 12.242 4.09591 12.521C4.11099 14.0404 4.10345 15.5636 4.10345 17.083C4.10345 17.1923 4.11476 17.3054 4.11853 17.4299C4.84618 17.4751 5.48712 17.7013 6.01872 18.1839C6.58048 18.6929 6.90095 19.3225 6.97636 20.0765C6.98013 20.1331 6.9839 20.1897 6.9839 20.2462C6.9839 24.1861 6.99898 28.1222 6.97636 32.0621C6.96882 33.491 5.93201 34.6673 4.5144 34.8294C3.75659 34.9161 2.9573 34.9237 2.21457 34.7691C0.842211 34.4863 0.020304 33.3364 0.0127635 31.8434C-0.00231735 28.0543 -0.00608757 24.2615 0.0127635 20.4687C0.020304 18.7268 1.09105 17.6146 2.87813 17.4223C2.88567 17.3431 2.90075 17.2564 2.90452 17.1697C2.90452 15.5938 2.90452 14.014 2.90829 12.4381C2.90829 12.2458 2.87436 12.1478 2.65569 12.0837C0.98171 11.6162 0.0240742 10.3645 0.0127635 8.58492C-0.00231735 5.98347 0.0127635 3.38579 0.00145287 0.784341C0.00145287 0.456332 0.0957083 0.192417 0.374705 0.00390625H0.781888C1.10613 0.188647 1.19284 0.471413 1.19284 0.833354C1.18153 3.41972 1.17776 6.00609 1.20038 8.59623C1.20415 8.99965 1.30972 9.43322 1.47561 9.8027C1.74329 10.3871 2.22965 10.7566 2.90452 10.9375V10.4776C2.90452 7.26535 2.90452 4.05689 2.90075 0.844665C2.90075 0.490264 2.99124 0.199958 3.30416 0.00767647H3.71135C4.03936 0.211268 4.10722 0.520426 4.10345 0.882367C4.09591 4.09082 4.10345 7.30305 4.10345 10.5115C4.10345 10.6397 4.10345 10.7716 4.10345 10.9338C4.23541 10.8961 4.31081 10.881 4.38245 10.8508C5.27976 10.4964 5.82267 9.64812 5.82644 8.59246C5.82644 6.02872 5.83398 3.46497 5.8189 0.901218C5.8189 0.539277 5.88676 0.24143 6.16576 0.00390625L6.64458 0.00390625ZM3.49645 26.7197C3.82068 26.7197 4.05821 26.4935 4.06198 26.173C4.06198 25.8525 3.832 25.615 3.51153 25.6112C3.18729 25.6112 2.95353 25.8374 2.94976 26.1579C2.94976 26.4821 3.17598 26.7159 3.49645 26.7197Z" fill="#D66D30"/>
<path d="M15.4328 0.00377022C16.1077 0.286537 16.3226 0.810597 16.3188 1.5194C16.3038 6.78639 16.3113 12.0534 16.3075 17.3204C16.3075 17.5692 16.3603 17.7125 16.5978 17.852C17.5819 18.4288 18.0456 19.3186 18.0456 20.4497C18.0456 24.2538 18.0645 28.0542 18.0418 31.8583C18.0305 33.6982 16.7901 34.8896 14.954 34.8745C14.3357 34.8707 13.6948 34.8745 13.1029 34.7237C11.9341 34.4334 11.0933 33.325 11.082 32.1147C11.0594 29.2192 11.0669 26.3237 11.0669 23.4319C11.0669 22.3989 11.0519 21.3658 11.0745 20.3328C11.0971 19.0886 11.7154 18.2177 12.8314 17.6899C12.8804 17.6672 12.9294 17.6371 13.0048 17.5994C12.9596 17.5051 12.9219 17.4146 12.8766 17.3279C11.64 15.0733 11.0405 12.6642 11.0707 10.0929C11.0858 8.65265 11.0556 7.20866 11.082 5.76843C11.1122 4.03413 11.7154 2.49211 12.7824 1.13107C13.216 0.576843 13.7853 0.222443 14.4752 0.0678639C14.528 0.0565533 14.5732 0.0226213 14.6223 0C14.8937 0 15.1689 0 15.4404 0L15.4328 0.00377022ZM15.086 17.4109V1.19139C14.4149 1.21778 13.9436 1.52694 13.5741 2.02838C12.6844 3.23485 12.247 4.59213 12.2357 6.08513C12.2244 7.4688 12.2244 8.85247 12.2357 10.2361C12.2546 12.5888 12.8125 14.7981 13.9474 16.8717C14.2151 17.3619 14.528 17.5277 15.0407 17.4335C15.0521 17.4335 15.0596 17.4222 15.0898 17.4071L15.086 17.4109ZM15.1048 26.1729C15.1048 25.8486 14.8786 25.6149 14.5582 25.6111C14.2339 25.6111 13.9964 25.8373 13.9926 26.1578C13.9926 26.4782 14.2226 26.7158 14.5431 26.7195C14.8673 26.7195 15.1011 26.4933 15.1048 26.1729Z" fill="#D66D30"/>
</g>
<defs>
<clipPath id="clip0_245_121">
<rect width="18.0531" height="34.8907" fill="white"/>
</clipPath>
</defs>
</svg>
