<svg width="32" height="32" viewBox="0 0 32 32" fill="none" xmlns="http://www.w3.org/2000/svg">
<g id="mdi:event-auto">
<path id="Vector" d="M14.32 16.3333L16 12.6666L17.6667 16.3333L21.3333 18L17.6667 19.68L16 23.3333L14.32 19.68L10.6667 18L14.32 16.3333ZM21.3333 3.99998V1.33331H24V3.99998H25.3333C26.04 3.99998 26.72 4.27998 27.2133 4.78665C27.72 5.27998 28 5.95998 28 6.66665V25.3333C28 26.04 27.72 26.72 27.2133 27.2133C26.72 27.72 26.04 28 25.3333 28H6.66667C5.96 28 5.28 27.72 4.78667 27.2133C4.28 26.72 4 26.04 4 25.3333V6.66665C4 5.95998 4.28 5.27998 4.78667 4.78665C5.28 4.27998 5.96 3.99998 6.66667 3.99998H8V1.33331H10.6667V3.99998H21.3333ZM6.66667 10.6666V25.3333H25.3333V10.6666H6.66667Z" fill="#F4F4F6"/>
</g>
</svg>
