<svg width="26" height="26" viewBox="0 0 26 26" fill="none" xmlns="http://www.w3.org/2000/svg">
<g id="streamline:class-lesson-solid" clip-path="url(#clip0_1_134)">
<path id="Vector" fill-rule="evenodd" clip-rule="evenodd" d="M23.0323 16.6697H13.4811C14.5648 16.5732 15.5697 16.0628 16.2869 15.2447C17.0042 14.4265 17.3786 13.3635 17.3325 12.2764C17.2864 11.1894 16.8232 10.1619 16.0392 9.40743C15.2552 8.653 14.2107 8.22963 13.1226 8.22529H10.0026C10.4691 7.59808 10.8027 6.88232 10.9831 6.12178C11.1635 5.36124 11.1869 4.57189 11.0518 3.802C10.9168 3.03211 10.6261 2.29787 10.1976 1.64415C9.76906 0.990427 9.21172 0.430977 8.55963 0L23.0323 0C23.6966 0.000984137 24.3334 0.265563 24.8028 0.735637C25.2721 1.20571 25.5358 1.84285 25.5358 2.50714V14.1681C25.5358 15.5499 24.4141 16.6716 23.0323 16.6716V16.6697ZM5.38205 8.229C5.83935 8.23964 6.29415 8.15876 6.71974 7.99111C7.14532 7.82347 7.5331 7.57244 7.86028 7.25278C8.18747 6.93312 8.44745 6.55129 8.62495 6.12972C8.80245 5.70814 8.89388 5.25534 8.89388 4.79793C8.89388 4.34051 8.80245 3.88771 8.62495 3.46614C8.44745 3.04457 8.18747 2.66273 7.86028 2.34308C7.5331 2.02342 7.14532 1.77239 6.71974 1.60474C6.29415 1.4371 5.83935 1.35622 5.38205 1.36686C4.4859 1.38771 3.63347 1.75835 3.00703 2.39953C2.3806 3.04071 2.02988 3.90153 2.02988 4.79793C2.02988 5.69433 2.3806 6.55515 3.00703 7.19633C3.63347 7.83751 4.4859 8.20815 5.38205 8.229ZM15.0299 12.4559C15.0299 11.401 14.1756 10.5467 13.1226 10.5467H5.38391C4.73755 10.5465 4.09748 10.6736 3.50027 10.9208C2.90307 11.1681 2.36044 11.5306 1.90339 11.9876C1.44635 12.4447 1.08385 12.9873 0.836607 13.5845C0.589369 14.1817 0.462239 14.8218 0.462483 15.4681V17.706C0.462483 18.694 1.26477 19.4944 2.25277 19.4944H2.5722L3.09591 24.3416C3.14489 24.7967 3.36022 25.2177 3.70057 25.5237C4.04092 25.8298 4.48232 25.9994 4.94005 26H5.87234C6.32035 25.9998 6.75319 25.8377 7.09106 25.5435C7.42894 25.2493 7.64909 24.8429 7.71091 24.3991L9.10934 14.3631H13.1208C14.1738 14.3631 15.0281 13.5089 15.0281 12.4559H15.0299Z" fill="#D66D30"/>
</g>
<defs>
<clipPath id="clip0_1_134">
<rect width="26" height="26" fill="white"/>
</clipPath>
</defs>
</svg>
