<svg width="26" height="26" viewBox="0 0 26 26" fill="none" xmlns="http://www.w3.org/2000/svg">
<g id="SVG">
<path id="Vector" d="M3.90019 1.30005C3.55541 1.30005 3.22475 1.43701 2.98095 1.68081C2.73715 1.92461 2.60019 2.25527 2.60019 2.60005C2.60019 2.94483 2.73715 3.27549 2.98095 3.51929C3.22475 3.76309 3.55541 3.90005 3.90019 3.90005H5.48619L5.88269 5.48865C5.88663 5.50694 5.89096 5.52515 5.89569 5.54325L7.66109 12.6023L6.50019 13.7619C4.86219 15.3999 6.02179 18.2001 8.33839 18.2001H19.5002C19.845 18.2001 20.1756 18.0631 20.4194 17.8193C20.6632 17.5755 20.8002 17.2448 20.8002 16.9001C20.8002 16.5553 20.6632 16.2246 20.4194 15.9808C20.1756 15.737 19.845 15.6001 19.5002 15.6001H8.33839L9.63839 14.3001H18.2002C18.4416 14.2999 18.6781 14.2326 18.8834 14.1056C19.0886 13.9787 19.2545 13.7971 19.3624 13.5812L23.2624 5.78115C23.3614 5.583 23.4081 5.36284 23.3982 5.14156C23.3882 4.92027 23.3219 4.70521 23.2054 4.51676C23.089 4.32832 22.9264 4.17275 22.7329 4.06482C22.5395 3.95688 22.3217 3.90017 22.1002 3.90005H8.16419L7.76119 2.28415C7.69077 2.00303 7.52843 1.7535 7.29996 1.5752C7.07149 1.3969 6.79 1.30006 6.50019 1.30005H3.90019ZM20.8002 21.4501C20.8002 21.9672 20.5947 22.4632 20.229 22.8289C19.8634 23.1946 19.3674 23.4001 18.8502 23.4001C18.333 23.4001 17.837 23.1946 17.4713 22.8289C17.1056 22.4632 16.9002 21.9672 16.9002 21.4501C16.9002 20.9329 17.1056 20.4369 17.4713 20.0712C17.837 19.7055 18.333 19.5001 18.8502 19.5001C19.3674 19.5001 19.8634 19.7055 20.229 20.0712C20.5947 20.4369 20.8002 20.9329 20.8002 21.4501ZM8.45019 23.4001C8.96736 23.4001 9.46335 23.1946 9.82905 22.8289C10.1947 22.4632 10.4002 21.9672 10.4002 21.4501C10.4002 20.9329 10.1947 20.4369 9.82905 20.0712C9.46335 19.7055 8.96736 19.5001 8.45019 19.5001C7.93302 19.5001 7.43703 19.7055 7.07133 20.0712C6.70564 20.4369 6.50019 20.9329 6.50019 21.4501C6.50019 21.9672 6.70564 22.4632 7.07133 22.8289C7.43703 23.1946 7.93302 23.4001 8.45019 23.4001Z" fill="#D66D30"/>
</g>
</svg>
