<svg width="26" height="26" viewBox="0 0 26 26" fill="none" xmlns="http://www.w3.org/2000/svg">
<g id="SVG">
<path id="Vector" d="M11.7 7.7999C11.7 8.83425 11.2891 9.82623 10.5577 10.5576C9.82634 11.289 8.83436 11.6999 7.80002 11.6999C6.76567 11.6999 5.77369 11.289 5.0423 10.5576C4.31091 9.82623 3.90002 8.83425 3.90002 7.7999C3.90002 6.76556 4.31091 5.77358 5.0423 5.04219C5.77369 4.31079 6.76567 3.8999 7.80002 3.8999C8.83436 3.8999 9.82634 4.31079 10.5577 5.04219C11.2891 5.77358 11.7 6.76556 11.7 7.7999ZM22.1 7.7999C22.1 8.31206 21.9991 8.8192 21.8031 9.29237C21.6072 9.76554 21.3199 10.1955 20.9577 10.5576C20.5956 10.9198 20.1657 11.207 19.6925 11.403C19.2193 11.599 18.7122 11.6999 18.2 11.6999C17.6879 11.6999 17.1807 11.599 16.7076 11.403C16.2344 11.207 15.8044 10.9198 15.4423 10.5576C15.0802 10.1955 14.7929 9.76554 14.5969 9.29237C14.4009 8.8192 14.3 8.31206 14.3 7.7999C14.3 6.76556 14.7109 5.77358 15.4423 5.04219C16.1737 4.31079 17.1657 3.8999 18.2 3.8999C19.2344 3.8999 20.2263 4.31079 20.9577 5.04219C21.6891 5.77358 22.1 6.76556 22.1 7.7999ZM16.809 22.0999C16.8688 21.6748 16.9 21.2419 16.9 20.7999C16.903 18.7574 16.2159 16.7738 14.95 15.1709C15.9381 14.6004 17.059 14.3001 18.2 14.3001C19.341 14.3001 20.4618 14.6004 21.4499 15.1709C22.4381 15.7413 23.2586 16.5619 23.8291 17.55C24.3996 18.5381 24.7 19.6589 24.7 20.7999V22.0999H16.809ZM7.80002 14.2999C9.52393 14.2999 11.1772 14.9847 12.3962 16.2037C13.6152 17.4227 14.3 19.076 14.3 20.7999V22.0999H1.30002V20.7999C1.30002 19.076 1.98484 17.4227 3.20382 16.2037C4.42281 14.9847 6.07611 14.2999 7.80002 14.2999Z" fill="#D66D30"/>
</g>
</svg>
