<svg width="131" height="35" viewBox="0 0 131 35" fill="none" xmlns="http://www.w3.org/2000/svg">
<g clip-path="url(#clip0_76_62)">
<path d="M29.4756 10.436C29.7885 11.8159 30.7801 12.4191 32.3674 12.4191C33.9546 12.4191 34.6333 11.7932 34.6333 10.7866C34.6333 9.66684 33.9697 9.18425 31.6208 8.63757C27.8808 7.75911 26.9571 6.39806 26.9571 4.54311C26.9571 2.14902 28.7479 0.524059 32.0016 0.524059C35.6512 0.524059 37.1027 2.48457 37.2988 4.4941H34.3052C34.162 3.64957 33.6945 2.72964 31.9225 2.72964C30.716 2.72964 29.9883 3.22731 29.9883 4.20379C29.9883 5.18028 30.5727 5.54599 32.7934 6.06251C36.7898 7.00506 37.6645 8.49053 37.6645 10.4284C37.6645 12.9356 35.7681 14.6586 32.1336 14.6586C28.4991 14.6586 26.8101 12.9394 26.4783 10.436H29.4718H29.4756Z" fill="#D66D30"/>
<path d="M42.8147 11.2918L41.7439 14.4663H38.822L43.4896 0.723881H47.2221L52.0894 14.4626H48.9677L47.8366 11.288H42.8185L42.8147 11.2918ZM47.1957 8.85624C46.2192 5.95694 45.5971 4.10577 45.2653 2.86913H45.2465C44.9072 4.22264 44.221 6.37921 43.4405 8.85624H47.1957Z" fill="#D66D30"/>
<path d="M53.8539 0.723881H59.8561C63.1738 0.723881 64.4331 2.45441 64.4331 4.23772C64.4331 5.78728 63.6112 6.79393 62.6837 7.2162C63.6112 7.56683 64.8252 8.54331 64.8252 10.3492C64.8252 12.7019 62.9778 14.4626 60.0559 14.4626H53.8501V0.723881H53.8539ZM59.5167 6.14545C60.9268 6.14545 61.5112 5.51206 61.5112 4.54688C61.5112 3.58171 60.7496 3.01994 59.6034 3.01994H56.772V6.14545H59.5167ZM56.7682 12.1703H59.4489C61.055 12.1703 61.7826 11.4992 61.7826 10.255C61.7826 9.14655 61.0663 8.44152 59.4338 8.44152H56.7682V12.174V12.1703Z" fill="#D66D30"/>
<path d="M76.6108 5.12373C76.6108 7.90992 74.9406 10.304 71.6907 10.304C68.4407 10.304 66.9062 8.02302 66.9062 5.15766C66.9062 2.29229 68.7197 0.00753975 71.8264 0.00753975C74.7521 0.00753975 76.607 2.05854 76.607 5.11996L76.6108 5.12373ZM69.1382 5.11242C69.1382 7.06539 69.9941 8.54331 71.7698 8.54331C73.6926 8.54331 74.3751 6.93343 74.3751 5.15012C74.3751 3.25747 73.5984 1.76823 71.7359 1.76823C69.8734 1.76823 69.1382 3.16321 69.1382 5.11242Z" fill="#D66D30"/>
<path d="M81.8213 8.96558V14.4663H78.9182V0.727652H84.9543C87.9517 0.727652 89.5615 2.37901 89.5615 4.49787C89.5615 6.34151 88.5587 7.34061 87.5633 7.7478C88.2457 8.0004 89.2712 8.7092 89.2712 11.1674V11.846C89.2712 12.7697 89.2788 13.8216 89.4673 14.4663H86.6509C86.4096 13.8669 86.3644 12.8414 86.3644 11.3823V11.1825C86.3644 9.68192 85.9836 8.96935 83.7705 8.96935H81.8175L81.8213 8.96558ZM81.8213 6.60165H84.3134C85.9384 6.60165 86.568 5.98334 86.568 4.83342C86.568 3.6835 85.8366 3.09158 84.385 3.09158H81.8213V6.60165Z" fill="#D66D30"/>
<path d="M101.664 8.53954H95.0925V12.0308H102.343L101.988 14.4663H92.2083V0.727652H101.95V3.16321H95.0925V6.10775H101.664V8.54331V8.53954Z" fill="#D66D30"/>
<path d="M106.72 10.4397C107.033 11.8196 108.024 12.4229 109.612 12.4229C111.199 12.4229 111.877 11.797 111.877 10.7904C111.877 9.67061 111.214 9.18802 108.865 8.64134C105.125 7.76288 104.201 6.40183 104.201 4.54688C104.201 2.15279 105.992 0.52783 109.246 0.52783C112.895 0.52783 114.347 2.48834 114.543 4.49787H111.549C111.406 3.65334 110.939 2.73341 109.167 2.73341C107.96 2.73341 107.232 3.23108 107.232 4.20756C107.232 5.18405 107.817 5.54976 110.038 6.06628C114.034 7.00884 114.909 8.4943 114.909 10.4322C114.909 12.9394 113.012 14.6624 109.378 14.6624C105.743 14.6624 104.054 12.9432 103.722 10.4397H106.716H106.72Z" fill="#D66D30"/>
<path d="M76.6108 11.6839H66.9062V14.6661H76.6108V11.6839Z" fill="#D66D30"/>
<path d="M30.4746 30.7612L29.4039 33.9357H26.4819L31.1457 20.1971H34.8782L39.7456 33.9357H36.6238L35.4928 30.7612H30.4746ZM34.8556 28.3256C33.8791 25.4263 33.257 23.5752 32.9252 22.3385H32.9064C32.5671 23.692 31.8809 25.8486 31.1005 28.3256H34.8556Z" fill="#D66D30"/>
<path d="M44.4167 28.435V33.9357H41.5137V20.1971H47.5498C50.5471 20.1971 52.157 21.8484 52.157 23.9673C52.157 25.8109 51.1541 26.81 50.1588 27.2172C50.8412 27.4698 51.8667 28.1786 51.8667 30.6368V31.3154C51.8667 32.2391 51.8742 33.291 52.0627 33.9357H49.2464C49.0051 33.3363 48.9599 32.3108 48.9599 30.8517V30.6519C48.9599 29.1513 48.5791 28.4388 46.3659 28.4388H44.413L44.4167 28.435ZM44.4167 26.0711H46.9089C48.5338 26.0711 49.1634 25.4527 49.1634 24.3028C49.1634 23.1529 48.432 22.561 46.9805 22.561H44.4167V26.0711Z" fill="#D66D30"/>
<path d="M66.7441 33.9357H64.5649C64.4518 33.5135 64.3764 33.0422 64.3387 32.5822C63.5771 33.6077 62.2349 34.1657 60.3272 34.1657C56.3383 34.1657 54.1101 31.1533 54.1101 27.2398C54.1101 23.1114 56.5117 19.9972 60.8437 19.9972C64.3802 19.9972 66.4613 21.9917 66.7931 24.3368H63.8222C63.5394 23.4168 62.8155 22.3272 60.8022 22.3272C57.9821 22.3272 57.1753 24.6874 57.1753 27.1079C57.1753 29.5283 58.0952 31.8018 60.8211 31.8018C63.3622 31.8018 63.8297 30.0373 63.8297 28.8082V28.6838H60.8173V26.2483H66.7441V33.9357Z" fill="#D66D30"/>
<path d="M79.2311 28.0089H72.6596V31.5002H79.9097L79.5553 33.9357H69.7754V20.1971H79.5176V22.6326H72.6596V25.5772H79.2311V28.0127V28.0089Z" fill="#D66D30"/>
<path d="M82.0361 33.9357V20.1971H85.7196C87.4351 23.2811 90.6096 28.8459 91.2392 30.3427H91.2769C91.1224 28.91 91.1261 26.5235 91.1261 24.2689V20.1971H93.8181V33.9357H90.3268C88.8489 31.2513 85.3351 24.8608 84.6564 23.2698H84.6187C84.7168 24.4725 84.7507 27.2926 84.7507 29.7546V33.932H82.0399L82.0361 33.9357Z" fill="#D66D30"/>
<path d="M100.028 22.6288H95.854V20.1933H107.161V22.6288H103.002V33.932H100.028V22.6288Z" fill="#D66D30"/>
<path d="M122.807 29.9054C123.12 31.2853 124.112 31.8885 125.699 31.8885C127.286 31.8885 127.961 31.2626 127.961 30.256C127.961 29.1362 127.298 28.6537 124.949 28.107C121.209 27.2285 120.285 25.8675 120.285 24.0125C120.285 21.6184 122.076 19.9935 125.33 19.9935C128.979 19.9935 130.431 21.954 130.627 23.9635H127.633C127.49 23.119 127.022 22.199 125.25 22.199C124.044 22.199 123.316 22.6967 123.316 23.6732C123.316 24.6497 123.901 25.0154 126.121 25.5319C130.118 26.4745 130.992 27.9599 130.992 29.8978C130.992 32.405 129.096 34.128 125.461 34.128C121.827 34.128 120.138 32.4088 119.806 29.9054H122.8H122.807Z" fill="#D66D30"/>
<path d="M118.283 24.5894C118.283 27.3756 116.613 29.7696 113.363 29.7696C110.113 29.7696 108.578 27.4887 108.578 24.6233C108.578 21.7579 110.392 19.4769 113.502 19.4769C116.428 19.4769 118.283 21.5279 118.283 24.5894ZM110.814 24.5818C110.814 26.5348 111.67 28.0127 113.446 28.0127C115.369 28.0127 116.051 26.4028 116.051 24.6195C116.051 22.7269 115.274 21.2376 113.412 21.2376C111.549 21.2376 110.814 22.6326 110.814 24.5818Z" fill="#D66D30"/>
<path d="M118.283 30.9535H108.578V33.9357H118.283V30.9535Z" fill="#D66D30"/>
<path d="M6.64311 0C6.94096 0.211132 6.99751 0.505209 6.99751 0.85584C6.9862 3.53269 7.00505 6.21332 6.97489 8.89017C6.95981 10.3719 5.87776 11.6914 4.44131 12.0572C4.17362 12.125 4.09067 12.2381 4.09445 12.5171C4.10953 14.0365 4.10199 15.5597 4.10199 17.0791C4.10199 17.1884 4.1133 17.3015 4.11707 17.4259C4.84472 17.4712 5.48566 17.6974 6.01726 18.18C6.57902 18.689 6.89949 19.3186 6.97489 20.0726C6.97866 20.1292 6.98243 20.1857 6.98243 20.2423C6.98243 24.1822 6.99751 28.1183 6.97489 32.0582C6.96735 33.4871 5.93054 34.6634 4.51294 34.8255C3.75513 34.9122 2.95584 34.9198 2.21311 34.7652C0.840747 34.4824 0.0188391 33.3325 0.0112987 31.8395C-0.0037822 28.0504 -0.00755242 24.2576 0.0112987 20.4647C0.0188391 18.7229 1.08958 17.6107 2.87666 17.4184C2.88421 17.3392 2.89929 17.2525 2.90306 17.1658C2.90306 15.5899 2.90306 14.0101 2.90683 12.4342C2.90683 12.2419 2.87289 12.1439 2.65422 12.0798C0.980245 11.6123 0.0226093 10.3606 0.0112987 8.58102C-0.0037822 5.97957 0.0112987 3.38189 -1.19775e-05 0.780435C-1.19775e-05 0.452426 0.0942435 0.188511 0.37324 0H0.780423C1.10466 0.184741 1.19138 0.467507 1.19138 0.829448C1.18007 3.41582 1.1763 6.00219 1.19892 8.59233C1.20269 8.99574 1.30825 9.42932 1.47414 9.7988C1.74183 10.3832 2.22819 10.7527 2.90306 10.9336V10.4737C2.90306 7.26144 2.90306 4.05298 2.89929 0.840759C2.89929 0.486358 2.98977 0.196051 3.3027 0.00377022H3.70988C4.03789 0.207362 4.10576 0.51652 4.10199 0.878461C4.09445 4.08692 4.10199 7.29914 4.10199 10.5076C4.10199 10.6358 4.10199 10.7677 4.10199 10.9299C4.23394 10.8922 4.30935 10.8771 4.38098 10.8469C5.27829 10.4925 5.82121 9.64422 5.82498 8.58856C5.82498 6.02481 5.83252 3.46106 5.81744 0.897312C5.81744 0.535371 5.8853 0.237524 6.1643 0L6.64311 0ZM3.49498 26.7158C3.81922 26.7158 4.05674 26.4896 4.06051 26.1691C4.06051 25.8486 3.83053 25.6111 3.51006 25.6073C3.18582 25.6073 2.95207 25.8335 2.9483 26.154C2.9483 26.4782 3.17451 26.712 3.49498 26.7158Z" fill="#282321"/>
<path d="M15.4314 -6.10249e-07C16.1063 0.282766 16.3212 0.806826 16.3174 1.51563C16.3023 6.78262 16.3098 12.0496 16.3061 17.3166C16.3061 17.5654 16.3589 17.7087 16.5964 17.8482C17.5804 18.4251 18.0441 19.3148 18.0441 20.4459C18.0441 24.25 18.063 28.0504 18.0404 31.8546C18.0291 33.6944 16.7887 34.8858 14.9526 34.8707C14.3342 34.867 13.6933 34.8707 13.1014 34.7199C11.9326 34.4296 11.0919 33.3212 11.0806 32.1109C11.0579 29.2154 11.0655 26.3199 11.0655 23.4281C11.0655 22.3951 11.0504 21.3621 11.073 20.329C11.0956 19.0848 11.7139 18.2139 12.8299 17.6861C12.8789 17.6635 12.928 17.6333 13.0034 17.5956C12.9581 17.5014 12.9204 17.4109 12.8752 17.3242C11.6385 15.0696 11.0391 12.6604 11.0692 10.0891C11.0843 8.64888 11.0542 7.20489 11.0806 5.76466C11.1107 4.03036 11.7139 2.48834 12.7809 1.12729C13.2145 0.573073 13.7838 0.218672 14.4737 0.0640931C14.5265 0.0527824 14.5718 0.0188505 14.6208 -0.00377083C14.8922 -0.00377083 15.1675 -0.00377083 15.4389 -0.00377083L15.4314 -6.10249e-07ZM15.0845 17.4071V1.18762C14.4134 1.21401 13.9421 1.52317 13.5727 2.02461C12.6829 3.23108 12.2455 4.58835 12.2342 6.08136C12.2229 7.46503 12.2229 8.8487 12.2342 10.2324C12.2531 12.585 12.8111 14.7943 13.9459 16.868C14.2136 17.3581 14.5265 17.524 15.0393 17.4297C15.0506 17.4297 15.0581 17.4184 15.0883 17.4033L15.0845 17.4071ZM15.1034 26.1691C15.1034 25.8448 14.8772 25.6111 14.5567 25.6073C14.2325 25.6073 13.9949 25.8335 13.9912 26.154C13.9912 26.4745 14.2211 26.712 14.5416 26.7158C14.8659 26.7158 15.0996 26.4896 15.1034 26.1691Z" fill="#282321"/>
</g>
<defs>
<clipPath id="clip0_76_62">
<rect width="131" height="34.8896" fill="white"/>
</clipPath>
</defs>
</svg>
