<svg width="32" height="32" viewBox="0 0 32 32" fill="none" xmlns="http://www.w3.org/2000/svg">
<g id="solar:star-shine-bold">
<path id="Vector" d="M14.1027 11.6053C14.9467 10.0906 15.3694 9.33331 16.0001 9.33331C16.6307 9.33331 17.0534 10.0906 17.8974 11.6053L18.1161 11.9973C18.3561 12.428 18.4761 12.6426 18.6627 12.784C18.8494 12.9266 19.0841 12.98 19.5494 13.0853L19.9734 13.1813C21.6134 13.552 22.4334 13.7373 22.6281 14.3653C22.8241 14.992 22.2641 15.6453 21.1467 16.9533L20.8574 17.292C20.5401 17.6626 20.3814 17.8493 20.3107 18.0786C20.2374 18.308 20.2614 18.556 20.3107 19.052L20.3534 19.5026C20.5227 21.2466 20.6067 22.1186 20.0961 22.5066C19.5854 22.8933 18.8187 22.5413 17.2827 21.8346L16.8854 21.6506C16.4494 21.4506 16.2321 21.3493 16.0001 21.3493C15.7694 21.3493 15.5507 21.4506 15.1147 21.6506L14.7174 21.8346C13.1814 22.5413 12.4147 22.8946 11.9041 22.5066C11.3934 22.12 11.4774 21.2466 11.6467 19.5026L11.6894 19.052C11.7387 18.556 11.7627 18.308 11.6894 18.0786C11.6187 17.8493 11.4601 17.6626 11.1427 17.292L10.8534 16.9533C9.73605 15.6466 9.17605 14.9933 9.37205 14.3653C9.56672 13.7386 10.3854 13.552 12.0254 13.1813L12.4507 13.0853C12.9174 12.9786 13.1494 12.9266 13.3374 12.7853C13.5241 12.6426 13.6441 12.428 13.8841 11.9986L14.1027 11.6053Z" fill="#F4F4F6"/>
<path id="Vector_2" fill-rule="evenodd" clip-rule="evenodd" d="M16 1.66669C16.2652 1.66669 16.5195 1.77204 16.7071 1.95958C16.8946 2.14712 17 2.40147 17 2.66669V5.33335C17 5.59857 16.8946 5.85292 16.7071 6.04046C16.5195 6.228 16.2652 6.33335 16 6.33335C15.7347 6.33335 15.4804 6.228 15.2929 6.04046C15.1053 5.85292 15 5.59857 15 5.33335V2.66669C15 2.40147 15.1053 2.14712 15.2929 1.95958C15.4804 1.77204 15.7347 1.66669 16 1.66669ZM24.7066 7.29335C24.8939 7.48085 24.9991 7.73502 24.9991 8.00002C24.9991 8.26502 24.8939 8.51919 24.7066 8.70669L24.2493 9.16402C24.0597 9.34066 23.809 9.43682 23.5499 9.43225C23.2909 9.42768 23.0437 9.32273 22.8605 9.13952C22.6772 8.9563 22.5723 8.70912 22.5677 8.45005C22.5632 8.19098 22.6593 7.94025 22.836 7.75069L23.2933 7.29335C23.4808 7.10609 23.735 7.0009 24 7.0009C24.265 7.0009 24.5191 7.10609 24.7066 7.29335ZM7.29329 7.29335C7.48079 7.10609 7.73496 7.0009 7.99996 7.0009C8.26496 7.0009 8.51913 7.10609 8.70663 7.29335L9.16529 7.75069C9.34736 7.93938 9.44804 8.19203 9.44564 8.45422C9.44324 8.71642 9.33795 8.96718 9.15246 9.1525C8.96696 9.33783 8.7161 9.44288 8.4539 9.44503C8.1917 9.44718 7.93914 9.34627 7.75063 9.16402L7.29329 8.70669C7.10603 8.51919 7.00084 8.26502 7.00084 8.00002C7.00084 7.73502 7.10603 7.48085 7.29329 7.29335ZM1.66663 16C1.66663 15.7348 1.77198 15.4805 1.95952 15.2929C2.14706 15.1054 2.40141 15 2.66663 15H5.33329C5.59851 15 5.85286 15.1054 6.0404 15.2929C6.22794 15.4805 6.33329 15.7348 6.33329 16C6.33329 16.2652 6.22794 16.5196 6.0404 16.7071C5.85286 16.8947 5.59851 17 5.33329 17H2.66663C2.40141 17 2.14706 16.8947 1.95952 16.7071C1.77198 16.5196 1.66663 16.2652 1.66663 16ZM25.6666 16C25.6666 15.7348 25.772 15.4805 25.9595 15.2929C26.1471 15.1054 26.4014 15 26.6666 15H29.3333C29.5985 15 29.8529 15.1054 30.0404 15.2929C30.2279 15.4805 30.3333 15.7348 30.3333 16C30.3333 16.2652 30.2279 16.5196 30.0404 16.7071C29.8529 16.8947 29.5985 17 29.3333 17H26.6666C26.4014 17 26.1471 16.8947 25.9595 16.7071C25.772 16.5196 25.6666 16.2652 25.6666 16ZM9.16396 22.836C9.35123 23.0235 9.45641 23.2777 9.45641 23.5427C9.45641 23.8077 9.35123 24.0619 9.16396 24.2494L8.70663 24.7067C8.51706 24.8833 8.26633 24.9795 8.00726 24.9749C7.74819 24.9703 7.50101 24.8654 7.3178 24.6822C7.13458 24.499 7.02963 24.2518 7.02506 23.9927C7.02049 23.7336 7.11665 23.4829 7.29329 23.2934L7.75063 22.836C7.93813 22.6488 8.19229 22.5436 8.45729 22.5436C8.72229 22.5436 8.97646 22.6488 9.16396 22.836ZM22.8346 22.836C22.9275 22.7431 23.0378 22.6694 23.1591 22.6191C23.2805 22.5688 23.4106 22.5429 23.542 22.5429C23.6733 22.5429 23.8034 22.5688 23.9248 22.6191C24.0462 22.6694 24.1564 22.7431 24.2493 22.836L24.7066 23.2934C24.8833 23.4829 24.9794 23.7336 24.9749 23.9927C24.9703 24.2518 24.8653 24.499 24.6821 24.6822C24.4989 24.8654 24.2517 24.9703 23.9927 24.9749C23.7336 24.9795 23.4829 24.8833 23.2933 24.7067L22.836 24.2494C22.6487 24.0619 22.5435 23.8077 22.5435 23.5427C22.5435 23.2777 22.6487 23.0235 22.836 22.836M16 25.6667C16.2652 25.6667 16.5195 25.772 16.7071 25.9596C16.8946 26.1471 17 26.4015 17 26.6667V29.3334C17 29.5986 16.8946 29.8529 16.7071 30.0405C16.5195 30.228 16.2652 30.3334 16 30.3334C15.7347 30.3334 15.4804 30.228 15.2929 30.0405C15.1053 29.8529 15 29.5986 15 29.3334V26.6667C15 26.4015 15.1053 26.1471 15.2929 25.9596C15.4804 25.772 15.7347 25.6667 16 25.6667Z" fill="#F4F4F6"/>
</g>
</svg>
