<svg width="32" height="32" viewBox="0 0 32 32" fill="none" xmlns="http://www.w3.org/2000/svg">
<g id="mingcute:sale-line">
<g id="Group">
<path id="Vector" fill-rule="evenodd" clip-rule="evenodd" d="M19.4585 3.86265C18.4935 3.04026 17.2671 2.58856 15.9992 2.58856C14.7313 2.58856 13.5049 3.04026 12.5399 3.86265L12.0385 4.28932C11.6116 4.65353 11.0806 4.87376 10.5212 4.91865L9.86388 4.97199C8.59984 5.07257 7.413 5.62025 6.51624 6.51676C5.61948 7.41328 5.07148 8.59997 4.97055 9.86399L4.91855 10.5213C4.87404 11.0806 4.65428 11.6115 4.29055 12.0387L3.86255 12.54C3.0398 13.5051 2.58789 14.7318 2.58789 16C2.58789 17.2682 3.0398 18.4949 3.86255 19.46L4.28922 19.9613C4.65343 20.3883 4.87366 20.9193 4.91855 21.4787L4.97188 22.136C5.07247 23.4 5.62014 24.5869 6.51666 25.4836C7.41317 26.3804 8.59987 26.9284 9.86388 27.0293L10.5212 27.0813C11.0805 27.1258 11.6114 27.3456 12.0385 27.7093L12.5399 28.136C13.505 28.9587 14.7317 29.4106 15.9999 29.4106C17.2681 29.4106 18.4948 28.9587 19.4599 28.136L19.9612 27.7093C20.3883 27.3456 20.9193 27.1258 21.4785 27.0813L22.1359 27.028C23.3999 26.9274 24.5868 26.3797 25.4835 25.4832C26.3803 24.5867 26.9283 23.4 27.0292 22.136L27.0799 21.4787C27.1248 20.9193 27.345 20.3883 27.7092 19.9613L28.1359 19.4587C28.9583 18.4936 29.41 17.2672 29.41 15.9993C29.41 14.7314 28.9583 13.505 28.1359 12.54L27.7092 12.0387C27.345 11.6117 27.1248 11.0807 27.0799 10.5213L27.0279 9.86399C26.9273 8.59994 26.3796 7.4131 25.4831 6.51634C24.5866 5.61958 23.3999 5.07159 22.1359 4.97065L21.4785 4.91865C20.9193 4.87414 20.3883 4.65438 19.9612 4.29065L19.4585 3.86265ZM14.2705 5.89332C14.753 5.4823 15.3661 5.25656 15.9999 5.25656C16.6337 5.25656 17.2468 5.4823 17.7292 5.89332L18.2319 6.32132C19.086 7.04926 20.1479 7.48925 21.2665 7.57865L21.9239 7.63199C22.5556 7.68256 23.1486 7.95644 23.5967 8.40453C24.0448 8.85262 24.3186 9.44564 24.3692 10.0773L24.4225 10.7347C24.512 11.8533 24.9519 12.9152 25.6799 13.7693L26.1066 14.272C26.5176 14.7544 26.7433 15.3675 26.7433 16.0013C26.7433 16.6351 26.5176 17.2482 26.1066 17.7307L25.6799 18.2333C24.9519 19.0874 24.512 20.1493 24.4225 21.268L24.3692 21.9253C24.3186 22.557 24.0448 23.15 23.5967 23.5981C23.1486 24.0462 22.5556 24.3201 21.9239 24.3707L21.2665 24.424C20.1479 24.5134 19.086 24.9534 18.2319 25.6813L17.7292 26.108C17.2468 26.519 16.6337 26.7447 15.9999 26.7447C15.3661 26.7447 14.753 26.519 14.2705 26.108L13.7679 25.6813C12.9138 24.9534 11.8519 24.5134 10.7332 24.424L10.0759 24.3707C9.44397 24.3204 8.85063 24.0466 8.40226 23.5985C7.9539 23.1504 7.67983 22.5572 7.62922 21.9253L7.57588 21.268C7.48686 20.1495 7.04734 19.0876 6.31988 18.2333L5.89322 17.7307C5.4822 17.2482 5.25645 16.6351 5.25645 16.0013C5.25645 15.3675 5.4822 14.7544 5.89322 14.272L6.31988 13.7693C7.04782 12.9152 7.48781 11.8533 7.57722 10.7347L7.63055 10.0773C7.68082 9.4454 7.95456 8.85207 8.40268 8.4037C8.85081 7.95533 9.44399 7.68127 10.0759 7.63065L10.7332 7.57865C11.8519 7.48925 12.9138 7.04926 13.7679 6.32132L14.2705 5.89332ZM20.9425 12.944C21.0699 12.821 21.1715 12.6739 21.2414 12.5112C21.3112 12.3485 21.348 12.1736 21.3496 11.9965C21.3511 11.8195 21.3174 11.6439 21.2503 11.48C21.1833 11.3162 21.0843 11.1673 20.9591 11.0421C20.8339 10.9169 20.685 10.8179 20.5212 10.7509C20.3573 10.6838 20.1817 10.6501 20.0047 10.6517C19.8276 10.6532 19.6527 10.69 19.49 10.7599C19.3273 10.8297 19.1802 10.9313 19.0572 11.0587L11.0572 19.0587C10.9299 19.1816 10.8283 19.3288 10.7584 19.4914C10.6885 19.6541 10.6518 19.8291 10.6502 20.0061C10.6487 20.1832 10.6824 20.3587 10.7495 20.5226C10.8165 20.6865 10.9155 20.8353 11.0407 20.9605C11.1659 21.0857 11.3147 21.1847 11.4786 21.2517C11.6425 21.3188 11.818 21.3525 11.9951 21.351C12.1721 21.3494 12.3471 21.3127 12.5098 21.2428C12.6724 21.1729 12.8196 21.0713 12.9425 20.944L20.9425 12.944ZM14.6665 12.6667C14.6665 13.1971 14.4558 13.7058 14.0808 14.0809C13.7057 14.4559 13.197 14.6667 12.6665 14.6667C12.1361 14.6667 11.6274 14.4559 11.2523 14.0809C10.8773 13.7058 10.6665 13.1971 10.6665 12.6667C10.6665 12.1362 10.8773 11.6275 11.2523 11.2524C11.6274 10.8774 12.1361 10.6667 12.6665 10.6667C13.197 10.6667 13.7057 10.8774 14.0808 11.2524C14.4558 11.6275 14.6665 12.1362 14.6665 12.6667ZM19.3332 21.3333C19.8636 21.3333 20.3724 21.1226 20.7474 20.7475C21.1225 20.3725 21.3332 19.8638 21.3332 19.3333C21.3332 18.8029 21.1225 18.2942 20.7474 17.9191C20.3724 17.544 19.8636 17.3333 19.3332 17.3333C18.8028 17.3333 18.2941 17.544 17.919 17.9191C17.5439 18.2942 17.3332 18.8029 17.3332 19.3333C17.3332 19.8638 17.5439 20.3725 17.919 20.7475C18.2941 21.1226 18.8028 21.3333 19.3332 21.3333Z" fill="#F4F4F6"/>
</g>
</g>
</svg>
