<svg width="32" height="32" viewBox="0 0 32 32" fill="none" xmlns="http://www.w3.org/2000/svg">
<g id="fluent:location-16-regular" clip-path="url(#clip0_2_319)">
<path id="Vector" d="M19.4285 13.7143C19.4285 12.805 19.0673 11.933 18.4243 11.29C17.7814 10.647 16.9093 10.2858 16 10.2858C15.0907 10.2858 14.2186 10.647 13.5757 11.29C12.9327 11.933 12.5715 12.805 12.5715 13.7143C12.5715 14.6236 12.9327 15.4957 13.5757 16.1387C14.2186 16.7817 15.0907 17.1429 16 17.1429C16.9093 17.1429 17.7814 16.7817 18.4243 16.1387C19.0673 15.4957 19.4285 14.6236 19.4285 13.7143ZM29.7141 13.7143C29.7141 20.2834 22.6353 27.465 18.6491 30.9895C17.9202 31.6405 16.9772 32.0002 16 32.0002C15.0228 32.0002 14.0798 31.6405 13.3509 30.9895C9.36465 27.465 2.28589 20.2834 2.28589 13.7143C2.28589 11.9134 2.64061 10.1301 3.32981 8.46619C4.01901 6.80232 5.02918 5.29048 6.30266 4.01701C7.57613 2.74354 9.08796 1.73337 10.7518 1.04417C12.4157 0.35497 14.199 0.000244141 16 0.000244141C17.801 0.000244141 19.5843 0.35497 21.2482 1.04417C22.912 1.73337 24.4239 2.74354 25.6973 4.01701C26.9708 5.29048 27.981 6.80232 28.6702 8.46619C29.3594 10.1301 29.7141 11.9134 29.7141 13.7143ZM27.4284 13.7143C27.4284 10.6833 26.2243 7.77648 24.0811 5.63323C21.9379 3.48999 19.031 2.28593 16 2.28593C12.969 2.28593 10.0621 3.48999 7.91888 5.63323C5.77563 7.77648 4.57157 10.6833 4.57157 13.7143C4.57157 16.2469 5.97727 19.1886 8.1601 22.1325C10.2949 25.0079 12.9303 27.5656 14.864 29.2776C15.1751 29.5596 15.5801 29.7158 16 29.7158C16.4199 29.7158 16.8248 29.5596 17.136 29.2776C19.0697 27.5656 21.7073 25.0102 23.8399 22.1325C26.0227 19.1886 27.4284 16.2469 27.4284 13.7143Z" fill="#EBDDD3"/>
</g>
<defs>
<clipPath id="clip0_2_319">
<rect width="32" height="32" fill="white"/>
</clipPath>
</defs>
</svg>
