<svg width="32" height="32" viewBox="0 0 32 32" fill="none" xmlns="http://www.w3.org/2000/svg">
<g id="hugeicons:question" clip-path="url(#clip0_2_326)">
<path id="Vector" d="M20.9124 8.75019H20.9248M25.5625 8.75019H25.5749M31 8.41383C31 12.509 27.5295 15.8292 23.2498 15.8292C22.7455 15.8292 22.2459 15.7827 21.7509 15.6897C21.3944 15.6231 21.2162 15.5905 21.0922 15.6091C20.9682 15.6277 20.7914 15.7207 20.4411 15.9083C19.4382 16.4429 18.2839 16.6226 17.1659 16.4182C17.5933 15.8902 17.883 15.2644 18.0091 14.5969C18.0866 14.1862 17.8944 13.7878 17.6061 13.4964C16.261 12.1464 15.5038 10.3196 15.4996 8.41383C15.4996 4.32018 18.9702 1 23.2498 1C27.5295 1 31 4.32018 31 8.41383ZM8.52754 30.4507H4.21224C3.71157 30.4507 3.20781 30.3794 2.74745 30.1826C1.25011 29.5393 0.489045 28.6883 0.135636 28.1567C0.0397223 28.0094 -0.0074016 27.8357 0.000944739 27.6601C0.00929108 27.4846 0.0726842 27.3161 0.182137 27.1786C1.91818 24.8721 5.94828 23.4802 8.53529 23.4802C11.1208 23.4802 15.1447 24.8721 16.8807 27.1786C17.0993 27.4685 17.1287 27.8544 16.9272 28.1567C16.5722 28.6883 15.8112 29.5393 14.3138 30.1826C13.8486 30.3698 13.3504 30.461 12.8491 30.4507H8.52754ZM12.8429 15.3983C12.842 15.9634 12.7299 16.5227 12.5129 17.0445C12.2959 17.5662 11.9783 18.0401 11.5782 18.4391C11.178 18.8381 10.7032 19.1544 10.1809 19.3698C9.6585 19.5853 9.09881 19.6958 8.53374 19.695C7.39308 19.6958 6.29876 19.2437 5.49132 18.438C4.68387 17.6323 4.22938 16.539 4.22774 15.3983C4.22835 14.8332 4.34025 14.2738 4.55706 13.752C4.77386 13.2302 5.09132 12.7562 5.49132 12.3571C5.89131 11.9579 6.366 11.6415 6.88829 11.4258C7.41058 11.2101 7.97023 11.0994 8.53529 11.1001C9.10036 11.0994 9.66001 11.2101 10.1823 11.4258C10.7046 11.6415 11.1793 11.9579 11.5793 12.3571C11.9793 12.7562 12.2967 13.2302 12.5135 13.752C12.7303 14.2738 12.8422 14.8332 12.8429 15.3983Z" stroke="#EBDDD3" stroke-width="2.32506" stroke-linecap="round" stroke-linejoin="round"/>
</g>
<defs>
<clipPath id="clip0_2_326">
<rect width="32" height="32" fill="white"/>
</clipPath>
</defs>
</svg>
