<svg width="26" height="26" viewBox="0 0 26 26" fill="none" xmlns="http://www.w3.org/2000/svg">
<g id="ph:star-fill">
<path id="Vector" d="M23.7951 11.6645L19.2248 15.6082L20.6172 21.5059C20.694 21.8261 20.6742 22.1618 20.5603 22.4708C20.4464 22.7797 20.2435 23.0479 19.9773 23.2416C19.711 23.4352 19.3933 23.5457 19.0643 23.5589C18.7354 23.5721 18.4098 23.4875 18.1289 23.3158L13 20.1592L7.86804 23.3158C7.58715 23.4865 7.26202 23.5703 6.93361 23.5566C6.60519 23.5429 6.28816 23.4323 6.02245 23.2388C5.75674 23.0453 5.55422 22.7775 5.4404 22.4692C5.32658 22.1608 5.30654 21.8257 5.38281 21.5059L6.78031 15.6082L2.21 11.6645C1.96147 11.4497 1.78173 11.1665 1.69323 10.8501C1.60473 10.5338 1.61138 10.1984 1.71236 9.88582C1.81334 9.57324 2.00416 9.29734 2.26101 9.09257C2.51786 8.8878 2.82934 8.76324 3.15656 8.73444L9.14875 8.251L11.4603 2.65694C11.5854 2.35207 11.7984 2.09129 12.0721 1.90775C12.3458 1.72422 12.6679 1.62622 12.9975 1.62622C13.327 1.62622 13.6491 1.72422 13.9228 1.90775C14.1965 2.09129 14.4095 2.35207 14.5346 2.65694L16.8452 8.251L22.8373 8.73444C23.1652 8.76217 23.4776 8.88604 23.7354 9.09052C23.9932 9.29501 24.1849 9.57102 24.2865 9.88398C24.3881 10.1969 24.3951 10.5329 24.3066 10.8498C24.2181 11.1667 24.038 11.4505 23.789 11.6655L23.7951 11.6645Z" fill="#D66D30"/>
</g>
</svg>
